<svg data-v-423bf9ae="" xmlns="http://www.w3.org/2000/svg" viewBox="0 0 470.7918501873406 60" class="font"><!----><!----><!----><g data-v-423bf9ae="" id="a1909834-fa21-4686-a6c5-73620c0e9b98" fill="white" transform="matrix(4.8979591836734695,0,0,4.8979591836734695,1.9102020525202477,-2.7428566180929863)"><path d="M4.45 12.60L6.52 12.60L11.37 1.05L8.40 1.05L5.49 8.64L2.58 1.05L-0.39 1.05ZM13.09 0.98C12.28 0.98 11.62 1.64 11.62 2.45C11.62 3.26 12.28 3.92 13.09 3.92C13.90 3.92 14.56 3.26 14.56 2.45C14.56 1.64 13.90 0.98 13.09 0.98ZM11.82 5.42L14.29 5.42L14.29 12.60L11.82 12.60ZM19.17 5.21C17.28 5.21 16.03 6.05 16.03 7.52C16.03 8.60 16.76 9.10 17.49 9.48C18.30 9.90 19.08 9.94 19.08 10.46C19.08 10.93 18.66 10.98 18.31 10.98C17.51 10.98 16.53 10.15 16.53 10.15L15.53 11.84C15.53 11.84 16.56 12.81 18.30 12.81C19.77 12.81 21.70 12.47 21.70 10.36C21.70 8.89 20.47 8.36 19.52 8.06C18.90 7.87 18.40 7.76 18.40 7.38C18.40 7.04 18.62 6.94 19.17 6.94C19.92 6.94 20.76 7.39 20.76 7.39L21.57 5.77C21.57 5.77 20.55 5.21 19.17 5.21ZM22.93 12.60L25.41 12.60L25.41 8.54C25.41 7.83 26.14 7.14 26.88 7.14C27.68 7.14 28.17 7.83 28.17 8.54L28.17 12.60L30.65 12.60L30.65 7.87C30.65 5.87 28.81 5.21 27.50 5.21C26.71 5.21 26.00 5.61 25.44 6.17L25.41 6.17L25.41 0.56L22.93 0.56ZM31.67 9.02C31.67 11.12 33.14 12.81 35.24 12.81C36.22 12.81 37.06 12.38 37.59 11.79L37.62 11.79L37.62 12.60L40.07 12.60L40.07 5.42L37.59 5.42L37.59 6.10C37.00 5.53 36.20 5.21 35.24 5.21C33.14 5.21 31.67 6.92 31.67 9.02ZM34.30 9.02C34.30 8.02 35.04 7.32 35.98 7.32C36.90 7.32 37.65 8.02 37.65 9.02C37.65 10.00 36.95 10.70 35.98 10.70C34.97 10.70 34.30 10.00 34.30 9.02ZM41.75 12.60L44.23 12.60L44.23 0.56L41.75 0.56ZM56.42 12.60L51.04 6.52L55.69 1.05L52.50 1.05L48.54 5.77L48.54 1.05L45.91 1.05L45.91 12.60L48.54 12.60L48.54 7.70L52.79 12.60ZM59.26 5.42L56.78 5.42L56.78 9.44C56.78 11.84 57.99 12.81 60.68 12.81C63.36 12.81 64.57 11.84 64.57 9.44L64.57 5.42L62.09 5.42L62.09 8.83C62.09 10.25 61.71 10.79 60.68 10.79C59.64 10.79 59.26 10.25 59.26 8.83ZM66.11 12.60L68.59 12.60L68.59 8.40C68.59 7.83 68.91 7.20 69.73 7.20C70.62 7.20 70.99 7.83 70.99 8.54L70.99 12.60L73.47 12.60L73.47 8.32C73.50 7.77 73.84 7.20 74.62 7.20C75.50 7.20 75.88 7.83 75.88 8.54L75.88 12.60L78.36 12.60L78.36 7.87C78.36 5.87 76.87 5.21 75.56 5.21C74.77 5.21 73.93 5.61 73.18 6.52C72.67 5.56 71.62 5.21 70.67 5.21C69.89 5.21 69.17 5.61 68.61 6.17L68.59 6.17L68.59 5.42L66.11 5.42ZM79.38 9.02C79.38 11.12 80.85 12.81 82.95 12.81C83.93 12.81 84.77 12.38 85.30 11.79L85.33 11.79L85.33 12.60L87.78 12.60L87.78 5.42L85.30 5.42L85.30 6.10C84.71 5.53 83.92 5.21 82.95 5.21C80.85 5.21 79.38 6.92 79.38 9.02ZM82.01 9.02C82.01 8.02 82.75 7.32 83.69 7.32C84.62 7.32 85.36 8.02 85.36 9.02C85.36 10.00 84.66 10.70 83.69 10.70C82.68 10.70 82.01 10.00 82.01 9.02ZM89.46 12.60L91.94 12.60L91.94 8.82C91.94 8.64 92.12 7.36 93.41 7.36C94.23 7.36 94.70 7.76 94.70 7.76L95.73 5.66C95.73 5.66 95.09 5.21 94.16 5.21C92.75 5.21 91.97 6.45 91.97 6.45L91.94 6.45L91.94 5.42L89.46 5.42Z"></path></g><!----><!----></svg>